#!OML:ASF E:\Steps\Project 1\Capture day 1\Session 2\Subject.ASF
:FULLY-SPECIFIED
:DEGREES
228
root -1.0093 17.9709 21.0147 -155.114 -2.41677 178.197
lowerback -26.4912 -2.45694 -6.79902
upperback -0.267298 -1.4889 -0.20896
thorax 14.7722 -1.31116 3.0614
lowerneck 3.22201 0.0921301 -1.51088
upperneck 12.8977 -1.6846 6.73777
head 3.72937 -1.11326 2.45357
rclavicle 6.4605e-015 1.98785e-015
rhumerus -38.4139 -17.9995 -77.7234
rradius 32.3969
rwrist -0.154837
rhand -8.00202 -57.4254
rfingers 7.12502
rthumb 17.9069 -86.621
lclavicle 6.4605e-015 1.98785e-015
lhumerus -30.3385 4.9946 80.8269
lradius 23.3167
lwrist -3.56924
lhand -22.8232 -12.7377
lfingers 7.12502
lthumb 3.61383 17.2114
rfemur -23.1705 5.09002 20.0465
rtibia 6.97008
rfoot -18.3073 -3.50378
rtoes -15.9918
lfemur -24.4443 -9.50424 -21.34
ltibia 9.87534
lfoot -7.04804 -3.5625
ltoes -15.9424
229
root -1.01052 17.9709 21.0125 -155.106 -2.41564 178.17
lowerback -26.4188 -2.45403 -6.83874
upperback -0.312181 -1.48368 -0.218202
thorax 14.6777 -1.3096 3.07725
lowerneck 3.23749 0.154894 -1.49391
upperneck 13.1865 -1.66011 6.7629
head 3.82841 -1.11098 2.46316
rclavicle 2.98177e-016 -5.1684e-015
rhumerus -38.483 -17.8953 -77.7471
rradius 32.4625
rwrist -0.303564
rhand -8.19231 -56.9015
rfingers 7.12502
rthumb 17.7238 -86.1138
lclavicle 2.98177e-016 -5.1684e-015
lhumerus -30.4347 4.93502 80.8158
lradius 23.3815
lwrist -3.47699
lhand -22.8182 -12.6618
lfingers 7.12502
lthumb 3.61866 17.2872
rfemur -23.1753 5.14679 19.9814
rtibia 6.99769
rfoot -18.3261 -3.53371
rtoes -15.6505
lfemur -24.4679 -9.57275 -21.3678
ltibia 9.94176
lfoot -7.16011 -3.50653
ltoes -16.9183
230
root -1.01377 17.9711 21.0074 -155.139 -2.40328 178.18
lowerback -26.3913 -2.42169 -6.80778
upperback -0.314261 -1.45149 -0.224121
thorax 14.6552 -1.29183 3.06571
lowerneck 3.24853 0.168789 -1.56762
upperneck 13.2379 -1.66241 6.84535
head 3.84745 -1.11584 2.50587
rclavicle -1.67973e-014 0
rhumerus -38.5674 -17.8109 -77.7614
rradius 32.6021
rwrist -0.455144
rhand -8.22336 -56.8002
rfingers 7.12502
rthumb 17.6939 -86.0151
lclavicle -1.67973e-014 0
lhumerus -30.4363 5.0463 80.7852
lradius 23.3768
lwrist -3.54784
lhand -22.6871 -12.7097
lfingers 7.12502
lthumb 3.74522 17.2371
rfemur -23.1132 5.03745 20.0226
rtibia 7.0042
rfoot -18.3507 -3.49423
rtoes -16.396
lfemur -24.4346 -9.59957 -21.3839
ltibia 10.0147
lfoot -7.22685 -3.48143
ltoes -17.4782
231
root -1.01694 17.9715 21.002 -155.152 -2.38558 178.225
lowerback -26.4473 -2.38828 -6.75406
upperback -0.268135 -1.41335 -0.21704
thorax 14.7368 -1.27232 3.05663
lowerneck 3.12769 0.0885895 -1.57448
upperneck 13.1855 -1.74834 6.81826
head 3.85564 -1.15125 2.49572
rclavicle 1.19271e-015 -3.97569e-015
rhumerus -38.5383 -17.6955 -77.8597
rradius 32.7304
rwrist -0.482394
rhand -8.21079 -57.0768
rfingers 7.12502
rthumb 17.706 -86.2907
lclavicle 1.19271e-015 -3.97569e-015
lhumerus -30.3243 5.22556 80.7889
lradius 23.3316
lwrist -3.68779
lhand -22.7397 -12.7359
lfingers 7.12502
lthumb 3.6945 17.2118
rfemur -23.0659 4.9272 20.1048
rtibia 6.99475
rfoot -18.4368 -3.31549
rtoes -16.2365
lfemur -24.4141 -9.63923 -21.3452
ltibia 10.0519
lfoot -7.31845 -3.43441
ltoes -16.9136
232
root -1.0177 17.9719 20.9992 -155.144 -2.36003 178.236
lowerback -26.4558 -2.37552 -6.78916
upperback -0.219555 -1.37932 -0.199981
thorax 14.7981 -1.26085 3.10958
lowerneck 2.87829 -0.0868733 -1.48411
upperneck 13.2871 -1.96568 6.64154
head 3.9456 -1.25006 2.4149
rclavicle -1.04362e-014 -6.36111e-015
rhumerus -38.4002 -17.7046 -77.9004
rradius 32.7297
rwrist -0.43349
rhand -8.50945 -56.9923
rfingers 7.12502
rthumb 17.4186 -86.2319
lclavicle -1.04362e-014 -6.36111e-015
lhumerus -30.1942 5.2976 80.8467
lradius 23.2987
lwrist -3.76232
lhand -22.91 -12.7888
lfingers 7.12502
lthumb 3.53003 17.1617
rfemur -23.0755 4.9487 20.1076
rtibia 7.00246
rfoot -18.5092 -3.28256
rtoes -16.1005
lfemur -24.4296 -9.67412 -21.3188
ltibia 10.0522
lfoot -7.31392 -3.38357
ltoes -15.7689
233
root -1.01838 17.9724 20.9966 -155.152 -2.34252 178.232
lowerback -26.4014 -2.36619 -6.8251
upperback -0.216865 -1.35802 -0.208285
thorax 14.7693 -1.25247 3.12981
lowerneck 2.74372 -0.127888 -1.3395
upperneck 13.4786 -2.02628 6.46771
head 4.03719 -1.27785 2.32921
rclavicle -1.17283e-014 -7.95139e-015
rhumerus -38.3006 -17.8729 -77.8769
rradius 32.5707
rwrist -0.306386
rhand -8.76111 -56.4924
rfingers 7.12502
rthumb 17.1764 -85.7533
lclavicle -1.17283e-014 -7.95139e-015
lhumerus -30.2476 5.18828 80.8699
lradius 23.4063
lwrist -3.61275
lhand -22.9311 -12.739
lfingers 7.12502
lthumb 3.50966 17.2119
rfemur -23.0618 4.95696 20.103
rtibia 7.00314
rfoot -18.4643 -3.3509
rtoes -16.9965
lfemur -24.4294 -9.74197 -21.3104
ltibia 10.0717
lfoot -7.31693 -3.29443
ltoes -15.7781
234
root -1.02062 17.9706 20.9951 -155.051 -2.36492 178.245
lowerback -26.4176 -2.36137 -6.78276
upperback -0.284536 -1.37322 -0.219692
thorax 14.6965 -1.25561 3.08635
lowerneck 2.8316 0.0530038 -1.32426
upperneck 13.561 -1.78969 6.41229
head 4.0369 -1.16752 2.31396
rclavicle 8.05078e-015 -1.74931e-014
rhumerus -38.3643 -17.9754 -77.8753
rradius 32.5695
rwrist -0.206819
rhand -8.73324 -56.1839
rfingers 7.12502
rthumb 17.2032 -85.4424
lclavicle 8.05078e-015 -1.74931e-014
lhumerus -30.394 5.11982 80.8388
lradius 23.5177
lwrist -3.53977
lhand -22.8855 -12.6466
lfingers 7.12502
lthumb 3.55364 17.3035
rfemur -23.1707 4.8959 20.1175
rtibia 7.00989
rfoot -18.4116 -3.34467
rtoes -17.6711
lfemur -24.5915 -9.82419 -21.2713
ltibia 10.1957
lfoot -7.39114 -3.21777
ltoes -15.9109
235
root -1.0213 17.9697 20.9938 -154.994 -2.39366 178.314
lowerback -26.4022 -2.36545 -6.72743
upperback -0.319398 -1.40707 -0.172646
thorax 14.6495 -1.26778 3.09705
lowerneck 2.87564 0.168563 -1.47172
upperneck 13.6006 -1.64409 6.46391
head 4.03847 -1.10343 2.36286
rclavicle -6.85807e-015 1.39149e-014
rhumerus -38.4227 -17.825 -77.9088
rradius 32.7123
rwrist -0.358581
rhand -8.75376 -55.9133
rfingers 7.12502
rthumb 17.1835 -85.1735
lclavicle -6.85807e-015 1.39149e-014
lhumerus -30.4216 5.27554 80.8142
lradius 23.5033
lwrist -3.68365
lhand -22.8247 -12.7578
lfingers 7.12502
lthumb 3.61243 17.1913
rfemur -23.2271 5.01021 20.1735
rtibia 7.00514
rfoot -18.4062 -3.41688
rtoes -17.3072
lfemur -24.7118 -9.83762 -21.1751
ltibia 10.3292
lfoot -7.4405 -3.17958
ltoes -15.9402
236
root -1.02141 17.9706 20.9926 -154.987 -2.42592 178.39
lowerback -26.3631 -2.37706 -6.71211
upperback -0.318276 -1.43674 -0.103399
thorax 14.6341 -1.28158 3.15853
lowerneck 2.83837 0.202934 -1.5564
upperneck 13.6168 -1.59228 6.45569
head 4.04963 -1.07987 2.37727
rclavicle 9.93923e-016 -1.15295e-014
rhumerus -38.2937 -17.6702 -77.9199
rradius 32.6183
rwrist -0.531212
rhand -8.76934 -55.6273
rfingers 7.12502
rthumb 17.1685 -84.8888
lclavicle 9.93923e-016 -1.15295e-014
lhumerus -30.3769 5.46489 80.8269
lradius 23.4792
lwrist -3.85804
lhand -22.8366 -12.9551
lfingers 7.12502
lthumb 3.6009 16.9942
rfemur -23.2272 5.15621 20.2337
rtibia 6.99761
rfoot -18.3814 -3.51693
rtoes -16.7768
lfemur -24.7839 -9.91025 -21.0494
ltibia 10.4459
lfoot -7.45659 -3.10572
ltoes -15.2271
237
root -1.02297 17.9728 20.991 -154.984 -2.43467 178.378
lowerback -26.3276 -2.38882 -6.75782
upperback -0.302076 -1.43948 -0.0893091
thorax 14.636 -1.28605 3.20078
lowerneck 2.92646 0.251953 -1.6266
upperneck 13.3707 -1.49011 6.51513
head 3.94108 -1.0255 2.40973
rclavicle 1.49089e-015 1.39149e-014
rhumerus -38.0781 -17.7033 -77.9244
rradius 32.4104
rwrist -0.513551
rhand -8.71782 -55.8346
rfingers 7.12502
rthumb 17.218 -85.0917
lclavicle 1.49089e-015 1.39149e-014
lhumerus -30.3209 5.44063 80.8643
lradius 23.4866
lwrist -3.87891
lhand -22.8877 -13.0601
lfingers 7.12502
lthumb 3.55158 16.89
rfemur -23.2174 5.06409 20.2226
rtibia 6.96524
rfoot -18.3435 -3.44476
rtoes -16.8327
lfemur -24.8297 -9.92612 -21.0648
ltibia 10.5395
lfoot -7.4717 -3.11079
ltoes -14.3913
238
root -1.02616 17.9714 20.9879 -154.938 -2.42149 178.321
lowerback -26.3581 -2.40604 -6.82511
upperback -0.292773 -1.43718 -0.103257
thorax 14.6654 -1.29046 3.22334
lowerneck 3.06149 0.267883 -1.72628
upperneck 13.0303 -1.42896 6.63683
head 3.79406 -0.990742 2.46647
rclavicle 1.03368e-014 -5.96354e-015
rhumerus -37.9412 -17.6307 -78.0107
rradius 32.3762
rwrist -0.486737
rhand -8.77233 -56.279
rfingers 7.12502
rthumb 17.1656 -85.5408
lclavicle 1.03368e-014 -5.96354e-015
lhumerus -30.2453 5.47478 80.8624
lradius 23.4492
lwrist -3.87769
lhand -22.8194 -13.2084
lfingers 7.12502
lthumb 3.61754 16.7406
rfemur -23.2818 4.86987 20.1703
rtibia 7.00007
rfoot -18.3461 -3.28157
rtoes -16.3809
lfemur -24.8957 -9.96681 -21.1561
ltibia 10.6356
lfoot -7.61369 -3.05217
ltoes -15.8777
239
root -1.0292 17.9662 20.9824 -154.853 -2.40392 178.307
lowerback -26.4617 -2.41656 -6.85312
upperback -0.303128 -1.43965 -0.0911082
thorax 14.7119 -1.29666 3.25081
lowerneck 3.19427 0.268431 -1.83327
upperneck 12.7469 -1.39131 6.70155
head 3.66885 -0.971026 2.50493
rclavicle 1.58034e-014 -1.74931e-014
rhumerus -37.88 -17.3157 -78.1645
rradius 32.4994
rwrist -0.503629
rhand -8.80212 -56.7403
rfingers 7.12502
rthumb 17.1369 -86.0046
lclavicle 1.58034e-014 -1.74931e-014
lhumerus -30.2018 5.69393 80.8174
lradius 23.4418
lwrist -3.85135
lhand -22.5299 -13.4682
lfingers 7.12502
lthumb 3.89704 16.4759
rfemur -23.3764 4.78247 20.1478
rtibia 7.04635
rfoot -18.3515 -3.16157
rtoes -15.4554
lfemur -25.017 -10.0715 -21.1653
ltibia 10.7558
lfoot -7.71625 -2.95587
ltoes -16.9844
240
root -1.02795 17.9693 20.9806 -154.997 -2.49316 178.246
lowerback -26.2128 -2.41433 -6.94136
upperback -0.287105 -1.41773 -0.129413
thorax 14.5915 -1.28598 3.26971
lowerneck 3.27776 0.285565 -1.77645
upperneck 12.7139 -1.37437 6.7418
head 3.64072 -0.962246 2.50782
rclavicle -8.44835e-015 2.14687e-014
rhumerus -37.9414 -17.1952 -78.2982
rradius 32.6777
rwrist -0.442028
rhand -8.4923 -57.3145
rfingers 7.12502
rthumb 17.4351 -86.5526
lclavicle -8.44835e-015 2.14687e-014
lhumerus -30.2382 5.4785 80.816
lradius 23.5665
lwrist -3.63405
lhand -22.3119 -13.5153
lfingers 7.12502
lthumb 4.10758 16.4248
rfemur -23.1184 4.78799 20.1057
rtibia 6.92126
rfoot -18.379 -3.23996
rtoes -15.644
lfemur -24.9306 -10.0473 -21.2605
ltibia 10.9242
lfoot -7.67033 -3.16968
ltoes -15.7682
241
root -1.03178 17.9671 20.9757 -154.945 -2.4643 178.218
lowerback -26.246 -2.32084 -6.91171
upperback -0.304685 -1.29159 -0.23972
thorax 14.5702 -1.22345 3.17201
lowerneck 3.23847 0.26545 -1.53357
upperneck 12.9632 -1.4463 6.70638
head 3.73688 -0.995886 2.4529
rclavicle 1.3418e-014 1.23246e-014
rhumerus -38.0414 -17.304 -78.4029
rradius 32.7947
rwrist -0.467646
rhand -8.11446 -57.3812
rfingers 7.12502
rthumb 17.7987 -86.5866
lclavicle 1.3418e-014 1.23246e-014
lhumerus -30.2467 5.06746 80.8114
lradius 23.6578
lwrist -3.49555
lhand -22.3096 -13.3899
lfingers 7.12502
lthumb 4.10985 16.5502
rfemur -23.1971 4.84116 20.0339
rtibia 7.00266
rfoot -18.5415 -3.28876
rtoes -16.3819
lfemur -25.032 -10.1792 -21.2722
ltibia 11.0043
lfoot -7.67428 -3.08774
ltoes -14.0426
242
root -1.03677 17.9662 20.9714 -154.881 -2.47375 178.233
lowerback -26.309 -2.27859 -6.8504
upperback -0.298448 -1.24476 -0.27977
thorax 14.605 -1.19776 3.10697
lowerneck 3.15888 0.20055 -1.46615
upperneck 13.0708 -1.55211 6.70712
head 3.7949 -1.04571 2.44029
rclavicle -3.18055e-015 -5.56597e-015
rhumerus -37.985 -17.2848 -78.4886
rradius 32.8259
rwrist -0.626182
rhand -8.06534 -56.6424
rfingers 7.12502
rthumb 17.846 -85.8436
lclavicle -3.18055e-015 -5.56597e-015
lhumerus -30.1911 4.94897 80.8133
lradius 23.6608
lwrist -3.48114
lhand -22.3778 -13.4765
lfingers 7.12502
lthumb 4.04397 16.4649
rfemur -23.2973 4.85487 20.0233
rtibia 7.10905
rfoot -18.645 -3.34801
rtoes -16.566
lfemur -25.1323 -10.3293 -21.2285
ltibia 11.0546
lfoot -7.73352 -2.94014
ltoes -13.5039
